HIERARCHY
ROOT Hips
{
	OFFSET 0.000000 0.000000 0.000000
	CHANNELS 6 Xposition Yposition Zposition Xrotation Yrotation Zrotation
	JOINT LeftUpLeg_virtual
	{
		OFFSET 0.000000 0.000000 0.000000
		CHANNELS 3 Xrotation Yrotation Zrotation
		JOINT LeftUpLeg
		{
			OFFSET 13.026900 -6.336304 -1.092800
			CHANNELS 3 Xrotation Yrotation Zrotation
			JOINT LeftLeg
			{
				OFFSET 0.524474 -46.096886 9.782700
				CHANNELS 3 Xrotation Yrotation Zrotation
				JOINT LeftFoot
				{
					OFFSET -0.524474 -53.427422 -12.948200
					CHANNELS 3 Xrotation Yrotation Zrotation
					JOINT LeftToeBase
					{
						OFFSET 0.192200 -14.009700 16.364100
						CHANNELS 3 Xrotation Yrotation Zrotation
						JOINT LeftToe_End
						{
							OFFSET -1.784700 -0.561700 9.474800
							CHANNELS 3 Xrotation Yrotation Zrotation
							End Site
							{
								OFFSET 0 0 0
							}
						}
					}
				}
			}
		}
	}
	JOINT RightUpLeg_virtual
	{
		OFFSET 0.000000 0.000000 0.000000
		CHANNELS 3 Xrotation Yrotation Zrotation
		JOINT RightUpLeg
		{
			OFFSET -12.883000 -6.336304 -1.092800
			CHANNELS 3 Xrotation Yrotation Zrotation
			JOINT RightLeg
			{
				OFFSET -0.524587 -46.096825 9.782800
				CHANNELS 3 Xrotation Yrotation Zrotation
				JOINT RightFoot
				{
					OFFSET 0.524587 -53.427383 -12.948300
					CHANNELS 3 Xrotation Yrotation Zrotation
					JOINT RightToeBase
					{
						OFFSET -0.192200 -14.009700 16.364100
						CHANNELS 3 Xrotation Yrotation Zrotation
						JOINT RightToe_End
						{
							OFFSET 1.784700 -0.561700 9.474800
							CHANNELS 3 Xrotation Yrotation Zrotation
							End Site
							{
								OFFSET 0 0 0
							}
						}
					}
				}
			}
		}
	}
	JOINT Spine_virtual
	{
		OFFSET 0.000000 0.000000 0.000000
		CHANNELS 3 Xrotation Yrotation Zrotation
		JOINT Spine
		{
			OFFSET 0.072000 7.257294 -0.789700
			CHANNELS 3 Xrotation Yrotation Zrotation
			JOINT Spine1
			{
				OFFSET 0.000000 12.508769 -0.658067
				CHANNELS 3 Xrotation Yrotation Zrotation
				JOINT Spine1_split
				{
					OFFSET 0.000000 12.508769 -0.658067
					CHANNELS 3 Xrotation Yrotation Zrotation
					JOINT Spine2
					{
						OFFSET 0.000000 12.508769 -0.658067
						CHANNELS 3 Xrotation Yrotation Zrotation
						JOINT Neck_virtual
						{
							OFFSET 0.000000 0.000000 0.000000
							CHANNELS 3 Xrotation Yrotation Zrotation
							JOINT Neck
							{
								OFFSET 0.000000 14.033295 7.520400
								CHANNELS 3 Xrotation Yrotation Zrotation
								JOINT Head
								{
									OFFSET 0.000000 8.198502 5.703100
									CHANNELS 3 Xrotation Yrotation Zrotation
									JOINT HeadTop_End
									{
										OFFSET 0.000000 17.760803 13.332701
										CHANNELS 3 Xrotation Yrotation Zrotation
										End Site
										{
											OFFSET 0 0 0
										}
									}
								}
							}
						}
						JOINT LeftShoulder_virtual
						{
							OFFSET 0.000000 0.000000 0.000000
							CHANNELS 3 Xrotation Yrotation Zrotation
							JOINT LeftShoulder
							{
								OFFSET 6.292450 5.785301 -0.669000
								CHANNELS 3 Xrotation Yrotation Zrotation
								JOINT LeftShoulder_split
								{
									OFFSET 6.292450 5.785301 -0.669000
									CHANNELS 3 Xrotation Yrotation Zrotation
									JOINT LeftArm
									{
										OFFSET 13.907140 -6.093903 1.965100
										CHANNELS 3 Xrotation Yrotation Zrotation
										JOINT LeftForeArm
										{
											OFFSET 34.140198 0.000000 0.000000
											CHANNELS 3 Xrotation Yrotation Zrotation
											JOINT LeftHand
											{
												OFFSET 40.960209 0.000000 0.000000
												CHANNELS 3 Xrotation Yrotation Zrotation
												End Site
												{
													OFFSET 0 0 0
												}
											}
										}
									}
								}
							}
						}
						JOINT RightShoulder_virtual
						{
							OFFSET 0.000000 0.000000 0.000000
							CHANNELS 3 Xrotation Yrotation Zrotation
							JOINT RightShoulder
							{
								OFFSET -6.292450 5.785301 -0.669000
								CHANNELS 3 Xrotation Yrotation Zrotation
								JOINT RightShoulder_split
								{
									OFFSET -6.292450 5.785301 -0.669000
									CHANNELS 3 Xrotation Yrotation Zrotation
									JOINT RightArm
									{
										OFFSET -13.907140 -6.093903 1.965100
										CHANNELS 3 Xrotation Yrotation Zrotation
										JOINT RightForeArm
										{
											OFFSET -34.140198 0.000000 0.000000
											CHANNELS 3 Xrotation Yrotation Zrotation
											JOINT RightHand
											{
												OFFSET -40.960209 0.000000 0.000000
												CHANNELS 3 Xrotation Yrotation Zrotation
												End Site
												{
													OFFSET 0 0 0
												}
											}
										}
									}
								}
							}
						}
					}
				}
			}
		}
	}
}
MOTION
Frames: 9
Frame Time: 0.03333333
13.724119 173.758255 -18.232624 0.000000 0.000000 0.000000 -90.658016 -6.033949 -1.223090 6.252147 31.961293 7.873298 -0.769924 -17.717712 -7.896835 16.627868 32.789102 -12.259571 7.895513 -0.489227 4.503586 0.000000 0.000000 0.000000 -88.701249 -2.895574 1.325624 1.926549 -11.907566 -7.913110 -0.374904 10.254681 -9.615340 20.858735 -28.819604 21.838150 3.065337 -1.078246 -21.689515 0.000000 0.000000 0.000000 -92.667574 2.800609 5.538121 0.509890 -2.242491 -0.334807 5.352616 -5.546314 2.327345 0.155661 0.769840 -0.159929 0.000000 0.000000 0.000000 3.955537 -2.860974 1.093080 -25.806034 -0.790023 -3.365721 1.301116 -59.794570 21.136055 0.000000 0.000000 0.000000 3.335487 -4.574336 0.192210 -0.876805 -0.406509 -8.022533 3.417942 5.678046 -5.012415 43.997312 -23.500984 -43.804199 17.003566 -70.950352 12.187209 0.000000 0.000000 0.000000 6.332811 -3.137542 1.541270 -3.809845 -2.084511 15.777735 7.826684 5.069842 0.463890 43.704649 37.305855 34.219695 -75.458735 88.752748 66.434149 0.000000 0.000000 0.000000 
13.719006 173.782074 -18.166195 0.000000 0.000000 0.000000 -90.661493 -5.910521 -1.015898 6.308515 31.759956 7.836456 -0.827219 -17.707819 -7.906669 16.606715 32.942952 -12.121517 7.984327 -0.476016 4.446339 0.000000 0.000000 0.000000 -88.758213 -2.971953 1.361985 1.774024 -11.883057 -7.907377 -0.076496 10.423640 -9.667314 20.712632 -28.769836 21.743250 3.229700 -1.100600 -21.712995 0.000000 0.000000 0.000000 -92.783550 2.555457 5.569450 0.439249 -2.344903 -0.342753 5.356819 -5.384789 2.426201 0.063364 0.771874 -0.174172 0.000000 0.000000 0.000000 4.020252 -2.692487 1.074971 -25.929541 -0.919879 -3.303498 1.232510 -60.144822 20.908058 0.000000 0.000000 0.000000 3.564520 -4.424416 0.333209 -0.971613 -0.802415 -8.011530 3.691914 6.050283 -4.952161 43.739852 -23.279933 -43.815011 17.076549 -70.190869 12.129386 0.000000 0.000000 0.000000 6.529419 -2.962580 1.525495 -3.831804 -2.150771 15.329397 8.312278 5.768158 0.007750 41.811474 38.237786 33.973371 -112.664892 89.041816 103.749849 0.000000 0.000000 0.000000 
13.698487 173.833420 -18.051830 0.000000 0.000000 0.000000 -90.592050 -5.888063 -0.802048 6.342451 31.543053 7.796986 -0.947081 -17.624634 -7.946205 16.618993 33.178484 -12.068554 8.037861 -0.461595 4.365973 0.000000 0.000000 0.000000 -88.655043 -3.045929 1.476949 1.430965 -11.794758 -7.996634 0.315078 10.725657 -9.747419 20.688442 -28.552419 21.705016 3.225878 -1.120601 -21.835575 0.000000 0.000000 0.000000 -92.702975 2.378238 5.715364 0.401491 -2.499035 -0.512255 5.387811 -5.065921 2.480466 0.013300 0.770583 -0.175281 0.000000 0.000000 0.000000 4.245006 -2.366573 1.098407 -25.757840 -0.924717 -3.443144 0.065571 -60.601017 20.238609 0.000000 0.000000 0.000000 3.794638 -4.111393 0.474433 -1.015643 -1.288208 -7.909331 3.644982 6.101103 -5.207551 43.140622 -22.607180 -43.820646 16.535625 -70.198034 11.783331 0.000000 0.000000 0.000000 6.727539 -2.706891 1.457582 -3.863519 -2.322976 14.715344 9.001896 5.890346 -0.013917 37.790877 39.698070 34.714464 -174.649112 88.796994 165.863658 0.000000 0.000000 0.000000 
13.673738 173.908356 -17.960323 0.000000 0.000000 0.000000 -90.477173 -6.048326 -0.675044 6.328934 31.319153 7.759450 -1.063698 -17.545223 -8.001745 16.831126 33.377970 -12.214017 8.001230 -0.447764 4.288821 0.000000 0.000000 0.000000 -88.444379 -3.140958 1.654915 0.951721 -11.763737 -8.151430 0.771442 10.990453 -9.846880 20.751477 -28.257121 21.639614 3.042276 -1.139398 -22.032455 0.000000 0.000000 0.000000 -92.400274 2.295124 5.949809 0.510602 -2.664215 -0.845337 5.508687 -4.593479 2.486586 0.020672 0.713374 -0.182873 0.000000 0.000000 0.000000 4.639812 -1.888030 1.152902 -25.299748 -0.928259 -3.608724 -2.005507 -61.164365 19.293568 0.000000 0.000000 0.000000 4.041189 -3.618781 0.596110 -0.985428 -1.786412 -7.695831 3.433568 5.724869 -5.581342 42.195594 -21.534775 -43.697064 15.273363 -70.865747 11.022365 0.000000 0.000000 0.000000 6.945667 -2.338369 1.367039 -3.921234 -2.480887 14.104500 9.784502 5.412255 0.348761 31.705332 41.316128 36.920830 154.643925 87.540506 -163.266711 0.000000 0.000000 0.000000 
13.648522 174.018250 -17.857281 0.000000 0.000000 0.000000 -90.310038 -6.354861 -0.608489 6.279109 31.127679 7.715545 -1.153729 -17.477880 -8.052759 17.232414 33.492116 -12.491518 7.912632 -0.437817 4.237860 0.000000 0.000000 0.000000 -88.204544 -3.346031 1.797846 0.388398 -11.906494 -8.320543 1.105812 11.034437 -9.940477 20.810787 -28.024171 21.438282 2.933480 -1.198766 -22.269960 0.000000 0.000000 0.000000 -91.959153 2.250835 6.176222 0.858591 -2.765374 -1.316303 5.795444 -3.953473 2.465648 0.051438 0.617731 -0.187811 0.000000 0.000000 0.000000 5.171789 -1.246688 1.229058 -24.638813 -1.112952 -3.601925 -4.511468 -61.879970 18.329530 0.000000 0.000000 0.000000 4.347239 -2.939981 0.680640 -0.864978 -2.196788 -7.373338 3.212380 4.714419 -5.855738 41.000212 -20.285078 -43.292334 13.219117 -71.833974 9.686931 0.000000 0.000000 0.000000 7.233051 -1.813371 1.283039 -3.985561 -2.503687 13.678429 10.295919 4.735012 0.742120 23.788470 42.464895 40.795562 145.330019 85.689340 -153.762284 0.000000 0.000000 0.000000 
13.640889 174.175079 -17.763798 0.000000 0.000000 0.000000 -90.056229 -6.725549 -0.576737 6.214305 30.975386 7.671067 -1.232096 -17.389834 -8.066023 17.662048 33.519768 -12.755389 7.859593 -0.426517 4.210728 0.000000 0.000000 0.000000 -87.931691 -3.662298 1.864952 -0.216721 -12.224772 -8.473136 1.247081 10.861263 -10.005085 20.685810 -27.891385 21.046166 3.103977 -1.327774 -22.515148 0.000000 0.000000 0.000000 -91.454157 2.191395 6.327568 1.514274 -2.744190 -1.849612 6.297603 -3.134342 2.428423 0.108624 0.537840 -0.199593 0.000000 0.000000 0.000000 5.816159 -0.451906 1.299498 -23.806025 -1.654562 -3.303461 -6.834176 -62.916854 17.600504 0.000000 0.000000 0.000000 4.769542 -2.094771 0.716526 -0.635792 -2.409464 -6.960041 3.116409 3.319848 -5.782132 39.564793 -19.426445 -42.436563 10.311934 -72.766780 7.628384 0.000000 0.000000 0.000000 7.648113 -1.093835 1.206067 -4.055425 -2.209266 13.488451 10.561422 4.286339 1.087427 14.776004 42.592233 46.007656 143.351764 83.484610 -151.596281 0.000000 0.000000 0.000000 
13.644853 174.367004 -17.747562 0.000000 0.000000 0.000000 -89.738761 -7.041009 -0.552587 6.148975 30.821365 7.635113 -1.352450 -17.327316 -8.033131 17.963532 33.437516 -12.930446 7.871084 -0.412941 4.210467 0.000000 0.000000 0.000000 -87.609962 -3.971924 1.914037 -0.766543 -12.602746 -8.600578 1.306836 10.608346 -10.026574 20.334604 -27.800352 20.444853 3.623952 -1.510741 -22.742546 0.000000 0.000000 0.000000 -90.944058 2.100589 6.387783 2.442706 -2.575053 -2.378633 7.012688 -2.190456 2.380545 0.132344 0.487029 -0.192124 0.000000 0.000000 0.000000 6.555211 0.453996 1.322433 -22.890093 -2.518166 -2.735744 -8.316853 -64.329283 17.444459 0.000000 0.000000 0.000000 5.358746 -1.130359 0.692129 -0.296870 -2.262373 -6.468155 3.310241 1.771471 -5.584261 37.788722 -19.545172 -40.986644 6.752850 -73.349080 4.952209 0.000000 0.000000 0.000000 8.242028 -0.216805 1.097493 -4.129350 -1.538576 13.475007 11.004920 4.293436 1.426984 5.362399 41.315548 51.848881 145.662417 80.941771 -153.701058 0.000000 0.000000 0.000000 
13.667577 174.558228 -17.828976 0.000000 0.000000 0.000000 -89.360266 -7.230294 -0.535463 6.075503 30.639894 7.622643 -1.558858 -17.305664 -7.963707 17.986967 33.260535 -12.927740 7.977607 -0.402445 4.222116 0.000000 0.000000 0.000000 -87.276669 -4.177499 1.942472 -1.189550 -12.890537 -8.679382 1.349837 10.400344 -9.987694 19.920996 -27.645756 19.782676 4.321161 -1.693256 -22.940901 0.000000 0.000000 0.000000 -90.499064 1.967165 6.296888 3.527372 -2.246145 -2.834475 7.926867 -1.197538 2.307593 0.113201 0.517873 -0.164090 0.000000 0.000000 0.000000 7.384663 1.403056 1.272101 -21.941127 -3.636290 -2.041461 -8.667817 -65.787371 17.886324 0.000000 0.000000 0.000000 6.156041 -0.140809 0.593504 0.127110 -1.627191 -5.921635 3.727408 0.284541 -5.252325 35.687605 -21.026461 -38.839498 2.791145 -73.173777 1.864165 0.000000 0.000000 0.000000 9.027117 0.730212 0.929821 -4.156509 -0.463362 13.540455 11.395595 4.549978 2.023915 -3.100499 38.724898 57.208947 150.406571 78.112502 -158.228012 0.000000 0.000000 0.000000 
13.710380 174.698395 -18.014896 0.000000 0.000000 0.000000 -88.955680 -7.309280 -0.585400 5.949031 30.427096 7.647013 -1.780723 -17.311685 -7.856172 17.777890 33.005113 -12.769910 8.149495 -0.392908 4.208830 0.000000 0.000000 0.000000 -86.980874 -4.224878 1.922096 -1.483394 -13.016559 -8.713158 1.398080 10.373288 -9.896883 19.661121 -27.357045 19.364532 4.806142 -1.800822 -23.099905 0.000000 0.000000 0.000000 -90.166796 1.819524 6.066483 4.644213 -1.817240 -3.158058 8.991375 -0.275874 2.194601 0.077555 0.611167 -0.150970 0.000000 0.000000 0.000000 8.306465 2.261802 1.129029 -20.931292 -4.878998 -1.380644 -7.676774 -67.030910 18.923235 0.000000 0.000000 0.000000 7.128325 0.736913 0.403381 0.618765 -0.542296 -5.339805 4.535776 -1.090709 -4.788907 33.361274 -23.805603 -36.086024 -0.947647 -71.889046 -1.065312 0.000000 0.000000 0.000000 9.991165 1.609821 0.696757 -4.120295 0.874961 13.529538 11.323941 4.868580 2.965846 -9.657932 35.530842 61.265253 155.990169 75.177105 -163.622536 0.000000 0.000000 0.000000 
